<?xml version="1.0" standalone="no"?>
<!DOCTYPE svg PUBLIC "-//W3C//DTD SVG 20010904//EN"
 "http://www.w3.org/TR/2001/REC-SVG-20010904/DTD/svg10.dtd">
<svg version="1.0" xmlns="http://www.w3.org/2000/svg"
 width="452.000000pt" height="254.000000pt" viewBox="0 0 452.000000 254.000000"
 preserveAspectRatio="xMidYMid meet">

<g transform="translate(0.000000,254.000000) scale(0.100000,-0.100000)"
fill="#000000" stroke="none">
<path d="M2130 2369 c-19 -17 -46 -36 -60 -44 -14 -7 -76 -48 -139 -92 -62
-43 -121 -82 -130 -88 -9 -5 -81 -53 -161 -105 -175 -114 -162 -105 -238 -155
-62 -40 -135 -90 -251 -174 -49 -35 -59 -46 -50 -57 23 -28 -11 -48 539 314
134 88 206 134 270 175 14 8 70 47 125 86 55 39 114 78 131 87 31 16 31 16 93
-27 34 -24 97 -69 141 -99 43 -30 132 -92 197 -138 171 -120 362 -251 409
-281 23 -14 68 -44 100 -67 33 -23 69 -44 82 -48 23 -8 52 7 52 25 0 5 -37 34
-82 65 -46 30 -148 100 -228 155 -80 56 -168 116 -197 135 l-52 34 -3 133 -3
132 -25 0 c-25 0 -25 -1 -28 -95 -2 -52 -7 -99 -12 -104 -5 -5 -26 5 -50 24
-85 67 -355 240 -375 240 -11 -1 -36 -14 -55 -31z"/>
<path d="M2395 1940 c3 -5 8 -10 11 -10 2 0 4 5 4 10 0 6 -5 10 -11 10 -5 0
-7 -4 -4 -10z"/>
<path d="M2450 1911 c0 -5 7 -12 16 -15 14 -5 15 -4 4 9 -14 17 -20 19 -20 6z"/>
<path d="M2510 1860 c8 -6 24 -16 35 -22 20 -11 20 -11 1 11 -11 11 -26 21
-35 21 -14 0 -14 -2 -1 -10z"/>
<path d="M2595 1805 c27 -23 55 -33 55 -20 0 8 -63 45 -75 45 -5 -1 4 -12 20
-25z"/>
<path d="M302 1522 c-72 -3 -71 1 -26 -102 33 -77 165 -422 241 -630 59 -163
64 -170 118 -170 23 0 47 6 52 13 10 13 83 194 107 267 8 25 27 72 41 105 15
33 40 94 55 135 25 68 64 165 121 305 37 90 39 85 -32 85 -35 0 -69 -4 -76 -8
-16 -10 -66 -122 -113 -252 -21 -58 -54 -150 -74 -205 -44 -119 -73 -185 -84
-185 -4 0 -14 21 -22 48 -7 26 -29 85 -48 132 -19 47 -47 121 -62 165 -16 44
-44 125 -64 180 -20 55 -36 101 -36 102 0 11 -46 17 -98 15z"/>
<path d="M1242 1522 c-10 -7 -12 -104 -10 -453 l3 -444 44 -3 c25 -2 55 -1 68
3 l23 5 0 450 0 450 -57 0 c-32 0 -64 -4 -71 -8z"/>
<path d="M1582 1522 c-10 -7 -6 -24 19 -78 17 -38 42 -98 54 -134 60 -167 95
-261 125 -335 18 -44 41 -109 52 -145 11 -36 34 -98 50 -138 l30 -73 47 3 46
3 37 75 c21 41 49 107 62 145 13 39 45 122 71 185 84 206 103 253 149 371 25
63 46 119 46 123 0 4 -32 6 -71 4 -51 -2 -74 -7 -80 -18 -8 -14 -23 -51 -144
-353 -27 -65 -60 -152 -74 -194 -14 -42 -30 -76 -36 -76 -5 1 -18 27 -28 60
-10 32 -36 103 -57 158 -21 55 -54 146 -74 202 -19 56 -48 128 -63 160 l-28
58 -60 3 c-33 1 -66 -2 -73 -6z"/>
<path d="M2790 1520 l-215 -5 -3 -170 c-2 -93 0 -293 3 -442 l7 -273 279 0
279 0 0 65 0 65 -210 0 -210 0 0 124 0 123 77 7 c42 3 129 6 193 6 l117 0 6
53 c2 28 3 55 0 60 -2 4 -92 7 -199 7 l-195 0 3 128 3 127 203 3 202 2 0 59
c0 67 -6 72 -78 69 -26 -1 -144 -5 -262 -8z"/>
<path d="M3668 1463 c-17 -38 -43 -102 -58 -143 -29 -78 -90 -234 -139 -355
-16 -38 -51 -126 -77 -195 -27 -68 -50 -127 -52 -131 -5 -12 38 -18 93 -12
l55 6 19 51 c10 28 25 63 32 79 l12 27 208 0 207 0 21 -63 c32 -96 43 -107
104 -107 85 0 85 2 34 131 -44 110 -134 341 -239 614 -28 72 -57 138 -66 148
-11 12 -30 17 -69 17 l-54 0 -31 -67z m133 -249 c15 -43 43 -117 63 -164 57
-136 62 -130 -104 -130 -112 0 -142 3 -146 14 -3 8 6 43 21 78 15 34 47 114
72 176 26 62 51 111 56 109 6 -2 23 -39 38 -83z"/>
<path d="M231 248 c1 -62 4 -89 8 -68 8 47 48 54 80 14 11 -15 21 -33 21 -40
0 -8 5 -14 10 -14 14 0 13 8 -7 41 -16 28 -16 29 11 54 21 19 27 33 24 57 -4
40 -34 58 -100 58 l-48 0 1 -102z m102 77 c21 -4 27 -11 27 -32 0 -15 -9 -36
-20 -48 -17 -18 -28 -21 -58 -16 -35 6 -37 9 -40 46 -4 42 14 66 46 60 9 -2
29 -6 45 -10z"/>
<path d="M464 337 c-3 -8 -4 -54 -2 -103 l3 -89 65 -1 c42 -1 49 0 20 3 -54 5
-70 17 -70 53 0 32 13 39 73 42 39 1 38 2 -13 7 l-55 6 0 35 c0 34 1 35 45 38
72 5 73 22 2 22 -43 0 -64 -4 -68 -13z"/>
<path d="M738 328 c-8 -13 -21 -41 -28 -63 -7 -22 -21 -57 -32 -78 -23 -45
-17 -61 7 -23 15 23 24 26 76 26 54 0 59 -2 65 -25 3 -14 10 -25 16 -25 12 0
7 15 -36 114 -42 96 -49 104 -68 74z m49 -61 c8 -20 13 -44 9 -52 -7 -20 -75
-20 -82 -1 -7 18 34 98 48 94 6 -2 17 -21 25 -41z"/>
<path d="M1244 337 c-3 -8 -4 -54 -2 -103 l3 -89 60 -1 60 -1 -50 6 c-49 6
-50 7 -53 43 -3 36 -2 37 35 43 67 11 69 13 15 14 l-53 1 3 43 3 42 55 6 55 6
-63 1 c-44 2 -64 -2 -68 -11z"/>
<path d="M1462 338 c-7 -7 -12 -19 -12 -27 0 -11 3 -11 13 4 11 14 22 17 55
12 23 -3 42 -2 42 3 0 21 -79 27 -98 8z"/>
<path d="M1678 335 l32 -14 2 -93 2 -93 5 92 c6 97 11 109 51 116 14 2 -9 5
-50 5 -73 1 -74 1 -42 -13z"/>
<path d="M1900 277 c-58 -130 -61 -137 -50 -137 6 0 15 11 20 25 9 23 15 25
68 25 32 0 63 -5 70 -12 18 -18 15 -3 -19 77 -44 107 -50 109 -89 22z m64 -5
c7 -15 17 -37 20 -49 7 -22 4 -23 -38 -23 -25 0 -47 4 -50 9 -8 13 34 102 45
96 5 -4 15 -18 23 -33z"/>
<path d="M2123 337 l37 -11 0 -95 c0 -122 18 -110 22 14 3 85 4 90 25 90 11 0
25 3 29 8 4 4 -28 6 -72 6 -73 -1 -76 -2 -41 -12z"/>
<path d="M2315 308 c-4 -24 -5 -70 -3 -103 l3 -60 65 -1 c42 -1 49 0 20 3 -56
5 -72 18 -68 57 3 29 6 31 53 37 l50 6 -48 1 c-53 2 -64 15 -50 59 9 26 13 28
55 25 26 -2 49 1 53 7 4 8 -15 11 -59 11 l-65 0 -6 -42z"/>
<path d="M2669 321 c-24 -25 -29 -38 -29 -79 0 -67 27 -102 78 -102 38 0 102
32 102 50 0 6 -17 -1 -37 -15 -69 -46 -121 -23 -130 57 -5 40 -2 50 20 72 32
32 83 35 121 5 14 -11 26 -16 26 -10 0 20 -53 51 -87 51 -25 0 -43 -8 -64 -29z"/>
<path d="M2928 333 c-32 -20 -48 -52 -48 -99 0 -86 114 -128 175 -64 23 24 28
38 27 77 0 40 -5 52 -31 75 -36 32 -82 36 -123 11z m120 -26 c30 -38 16 -131
-23 -149 -34 -15 -90 -2 -109 27 -23 35 -21 101 4 123 38 32 102 32 128 -1z"/>
<path d="M3167 344 c-11 -11 -8 -204 2 -204 5 0 12 33 15 73 2 39 6 85 8 101
3 28 -11 44 -25 30z"/>
<path d="M3339 323 c-25 -66 -62 -143 -70 -143 -4 0 -11 9 -14 21 -4 11 -9 18
-12 15 -7 -7 17 -66 27 -66 7 0 52 95 65 138 14 47 25 19 25 -63 0 -50 4 -85
10 -85 6 0 10 42 10 105 0 87 -3 105 -15 105 -9 0 -20 -12 -26 -27z"/>
<path d="M3481 243 c1 -60 3 -99 6 -88 14 69 10 65 62 65 52 0 65 9 76 52 5
21 1 33 -19 52 -20 21 -35 26 -76 26 l-50 0 1 -107z m117 75 c17 -17 15 -54
-4 -72 -9 -9 -32 -16 -55 -16 l-39 0 0 50 0 50 43 0 c24 0 48 -5 55 -12z"/>
<path d="M3737 313 c-46 -109 -74 -210 -41 -150 11 20 22 27 44 27 17 0 30 5
30 11 0 6 -9 8 -20 4 -13 -4 -22 -1 -25 7 -7 17 32 108 45 108 12 0 42 -102
33 -109 -5 -3 7 -21 25 -39 40 -42 40 -30 2 56 -61 136 -68 142 -93 85z"/>
<path d="M3940 251 c0 -129 18 -144 22 -19 l3 93 40 -62 c22 -35 44 -63 48
-63 10 0 5 9 -47 88 -22 34 -47 62 -53 62 -10 0 -13 -26 -13 -99z"/>
<path d="M4087 343 c-3 -5 -5 -39 -6 -78 -1 -38 -6 -71 -11 -73 -11 -4 9 -52
22 -52 4 0 8 47 8 105 0 98 -2 116 -13 98z"/>
<path d="M4191 345 c0 -5 17 -37 39 -70 26 -39 40 -72 41 -95 1 -35 1 -35 10
9 4 24 22 65 40 92 17 27 29 53 27 59 -2 6 -19 -14 -38 -44 -19 -30 -38 -55
-41 -56 -4 0 -10 10 -13 23 -7 24 -65 98 -65 82z"/>
<path d="M930 240 l0 -100 58 1 c31 1 46 3 32 6 -75 11 -70 5 -70 103 0 53 -4
90 -10 90 -6 0 -10 -40 -10 -100z"/>
<path d="M3212 310 c0 -8 6 -31 13 -50 7 -19 13 -28 13 -20 0 8 -6 31 -13 50
-7 19 -13 28 -13 20z"/>
<path d="M1440 283 c0 -17 36 -43 59 -43 35 0 61 -19 61 -43 0 -49 -48 -62
-94 -26 -29 23 -36 11 -8 -14 10 -10 35 -17 55 -17 28 0 40 6 53 25 25 38 7
71 -48 86 -24 7 -51 19 -60 27 -10 8 -18 11 -18 5z"/>
</g>
</svg>
